<svg id="visual" viewBox="0 0 900 600" width="900" height="600" xmlns="http://www.w3.org/2000/svg" xmlns:xlink="http://www.w3.org/1999/xlink" version="1.1"><g stroke-width="1" stroke-linejoin="bevel"><path d="M435 282L534 324L501 230Z" fill="#11181c" stroke="#11181c"></path><path d="M435 282L513 384L534 324Z" fill="#151d22" stroke="#151d22"></path><path d="M513 384L597 331L534 324Z" fill="#141c21" stroke="#141c21"></path><path d="M534 324L591 217L501 230Z" fill="#151d22" stroke="#151d22"></path><path d="M597 331L591 217L534 324Z" fill="#12191e" stroke="#12191e"></path><path d="M503 92L412 163L501 230Z" fill="#11181c" stroke="#11181c"></path><path d="M501 230L412 163L435 282Z" fill="#12191e" stroke="#12191e"></path><path d="M313 268L397 421L435 282Z" fill="#12191e" stroke="#12191e"></path><path d="M435 282L397 421L513 384Z" fill="#161e24" stroke="#161e24"></path><path d="M412 163L338 220L435 282Z" fill="#141c21" stroke="#141c21"></path><path d="M513 384L588 429L597 331Z" fill="#0c1316" stroke="#0c1316"></path><path d="M504 475L588 429L513 384Z" fill="#0f1519" stroke="#0f1519"></path><path d="M338 220L313 268L435 282Z" fill="#141c21" stroke="#141c21"></path><path d="M503 92L393 134L412 163Z" fill="#141c21" stroke="#141c21"></path><path d="M412 163L393 134L338 220Z" fill="#0a1114" stroke="#0a1114"></path><path d="M397 421L504 475L513 384Z" fill="#0f1519" stroke="#0f1519"></path><path d="M564 102L503 92L501 230Z" fill="#151d22" stroke="#151d22"></path><path d="M591 217L564 102L501 230Z" fill="#0c1316" stroke="#0c1316"></path><path d="M597 331L675 201L591 217Z" fill="#10171a" stroke="#10171a"></path><path d="M591 217L675 201L564 102Z" fill="#141c21" stroke="#141c21"></path><path d="M726 261L675 201L597 331Z" fill="#0f1519" stroke="#0f1519"></path><path d="M313 268L291 394L397 421Z" fill="#131a1f" stroke="#131a1f"></path><path d="M397 421L370 518L504 475Z" fill="#131a1f" stroke="#131a1f"></path><path d="M504 475L622 477L588 429Z" fill="#0a1114" stroke="#0a1114"></path><path d="M588 429L730 426L597 331Z" fill="#12191e" stroke="#12191e"></path><path d="M767 378L726 261L597 331Z" fill="#141c21" stroke="#141c21"></path><path d="M377 0L333 86L393 134Z" fill="#151d22" stroke="#151d22"></path><path d="M393 134L333 86L338 220Z" fill="#141c21" stroke="#141c21"></path><path d="M162 225L213 302L313 268Z" fill="#10171a" stroke="#10171a"></path><path d="M313 268L213 302L291 394Z" fill="#161e24" stroke="#161e24"></path><path d="M289 507L370 518L397 421Z" fill="#151d22" stroke="#151d22"></path><path d="M617 600L680 538L622 477Z" fill="#12191e" stroke="#12191e"></path><path d="M622 477L730 426L588 429Z" fill="#131a1f" stroke="#131a1f"></path><path d="M226 134L313 268L338 220Z" fill="#0d1417" stroke="#0d1417"></path><path d="M291 394L289 507L397 421Z" fill="#12191e" stroke="#12191e"></path><path d="M564 102L524 0L503 92Z" fill="#141c21" stroke="#141c21"></path><path d="M503 92L377 0L393 134Z" fill="#0d1417" stroke="#0d1417"></path><path d="M560 0L524 0L564 102Z" fill="#161e24" stroke="#161e24"></path><path d="M560 0L564 102L696 0Z" fill="#0a1114" stroke="#0a1114"></path><path d="M730 426L767 378L597 331Z" fill="#11181c" stroke="#11181c"></path><path d="M717 63L564 102L675 201Z" fill="#0f1519" stroke="#0f1519"></path><path d="M213 302L222 405L291 394Z" fill="#0a1114" stroke="#0a1114"></path><path d="M222 405L289 507L291 394Z" fill="#161e24" stroke="#161e24"></path><path d="M267 0L226 134L333 86Z" fill="#12191e" stroke="#12191e"></path><path d="M333 86L226 134L338 220Z" fill="#0d1417" stroke="#0d1417"></path><path d="M524 0L377 0L503 92Z" fill="#10171a" stroke="#10171a"></path><path d="M767 378L801 262L726 261Z" fill="#131a1f" stroke="#131a1f"></path><path d="M726 261L798 206L675 201Z" fill="#12191e" stroke="#12191e"></path><path d="M730 426L781 499L767 378Z" fill="#12191e" stroke="#12191e"></path><path d="M622 477L680 538L730 426Z" fill="#0c1316" stroke="#0c1316"></path><path d="M522 600L622 477L504 475Z" fill="#151d22" stroke="#151d22"></path><path d="M389 600L504 475L370 518Z" fill="#131a1f" stroke="#131a1f"></path><path d="M389 600L522 600L504 475Z" fill="#12191e" stroke="#12191e"></path><path d="M801 262L798 206L726 261Z" fill="#11181c" stroke="#11181c"></path><path d="M798 206L717 63L675 201Z" fill="#12191e" stroke="#12191e"></path><path d="M275 600L389 600L370 518Z" fill="#161e24" stroke="#161e24"></path><path d="M226 134L162 225L313 268Z" fill="#151d22" stroke="#151d22"></path><path d="M213 302L115 433L222 405Z" fill="#0c1316" stroke="#0c1316"></path><path d="M522 600L617 600L622 477Z" fill="#161e24" stroke="#161e24"></path><path d="M789 0L696 0L717 63Z" fill="#161e24" stroke="#161e24"></path><path d="M717 63L696 0L564 102Z" fill="#11181c" stroke="#11181c"></path><path d="M711 600L781 499L680 538Z" fill="#0c1316" stroke="#0c1316"></path><path d="M680 538L781 499L730 426Z" fill="#12191e" stroke="#12191e"></path><path d="M767 378L900 337L801 262Z" fill="#0c1316" stroke="#0c1316"></path><path d="M377 0L267 0L333 86Z" fill="#0f1519" stroke="#0f1519"></path><path d="M69 137L66 167L162 225Z" fill="#141c21" stroke="#141c21"></path><path d="M228 600L275 600L289 507Z" fill="#151d22" stroke="#151d22"></path><path d="M289 507L275 600L370 518Z" fill="#10171a" stroke="#10171a"></path><path d="M186 523L289 507L222 405Z" fill="#151d22" stroke="#151d22"></path><path d="M617 600L711 600L680 538Z" fill="#131a1f" stroke="#131a1f"></path><path d="M798 206L825 91L717 63Z" fill="#0a1114" stroke="#0a1114"></path><path d="M900 196L825 91L798 206Z" fill="#0c1316" stroke="#0c1316"></path><path d="M900 196L798 206L801 262Z" fill="#141c21" stroke="#141c21"></path><path d="M115 433L186 523L222 405Z" fill="#0c1316" stroke="#0c1316"></path><path d="M68 273L115 433L213 302Z" fill="#0c1316" stroke="#0c1316"></path><path d="M186 523L228 600L289 507Z" fill="#141c21" stroke="#141c21"></path><path d="M130 600L228 600L186 523Z" fill="#141c21" stroke="#141c21"></path><path d="M900 372L767 378L781 499Z" fill="#151d22" stroke="#151d22"></path><path d="M900 372L900 337L767 378Z" fill="#151d22" stroke="#151d22"></path><path d="M825 91L789 0L717 63Z" fill="#151d22" stroke="#151d22"></path><path d="M900 536L900 372L781 499Z" fill="#11181c" stroke="#11181c"></path><path d="M900 337L900 196L801 262Z" fill="#131a1f" stroke="#131a1f"></path><path d="M825 91L900 0L789 0Z" fill="#0d1417" stroke="#0d1417"></path><path d="M267 0L184 0L226 134Z" fill="#0a1114" stroke="#0a1114"></path><path d="M162 225L68 273L213 302Z" fill="#0d1417" stroke="#0d1417"></path><path d="M66 167L68 273L162 225Z" fill="#151d22" stroke="#151d22"></path><path d="M69 137L162 225L226 134Z" fill="#131a1f" stroke="#131a1f"></path><path d="M127 0L69 137L226 134Z" fill="#151d22" stroke="#151d22"></path><path d="M900 196L900 79L825 91Z" fill="#151d22" stroke="#151d22"></path><path d="M711 600L831 600L781 499Z" fill="#0c1316" stroke="#0c1316"></path><path d="M184 0L127 0L226 134Z" fill="#161e24" stroke="#161e24"></path><path d="M0 361L63 481L115 433Z" fill="#161e24" stroke="#161e24"></path><path d="M115 433L63 481L186 523Z" fill="#0f1519" stroke="#0f1519"></path><path d="M0 361L115 433L68 273Z" fill="#0c1316" stroke="#0c1316"></path><path d="M831 600L900 536L781 499Z" fill="#131a1f" stroke="#131a1f"></path><path d="M63 481L130 600L186 523Z" fill="#0a1114" stroke="#0a1114"></path><path d="M0 198L0 306L68 273Z" fill="#141c21" stroke="#141c21"></path><path d="M0 198L68 273L66 167Z" fill="#0f1519" stroke="#0f1519"></path><path d="M0 306L0 361L68 273Z" fill="#11181c" stroke="#11181c"></path><path d="M900 79L900 0L825 91Z" fill="#161e24" stroke="#161e24"></path><path d="M0 124L66 167L69 137Z" fill="#11181c" stroke="#11181c"></path><path d="M0 124L0 198L66 167Z" fill="#131a1f" stroke="#131a1f"></path><path d="M831 600L900 600L900 536Z" fill="#11181c" stroke="#11181c"></path><path d="M0 0L0 124L69 137Z" fill="#161e24" stroke="#161e24"></path><path d="M0 361L0 517L63 481Z" fill="#141c21" stroke="#141c21"></path><path d="M63 481L0 517L130 600Z" fill="#161e24" stroke="#161e24"></path><path d="M127 0L0 0L69 137Z" fill="#10171a" stroke="#10171a"></path><path d="M0 517L0 600L130 600Z" fill="#0c1316" stroke="#0c1316"></path></g></svg>