<svg id="visual" viewBox="0 0 900 600" width="900" height="600" xmlns="http://www.w3.org/2000/svg" xmlns:xlink="http://www.w3.org/1999/xlink" version="1.1"><g stroke-width="1" stroke-linejoin="bevel"><path d="M493 284L383 264L427 361Z" fill="#252525" stroke="#252525"></path><path d="M383 264L331 388L427 361Z" fill="#303030" stroke="#303030"></path><path d="M383 264L293 285L331 388Z" fill="#2b2b2b" stroke="#2b2b2b"></path><path d="M421 467L475 437L427 361Z" fill="#2a2a2a" stroke="#2a2a2a"></path><path d="M427 361L560 377L493 284Z" fill="#2a2a2a" stroke="#2a2a2a"></path><path d="M475 437L560 377L427 361Z" fill="#2a2a2a" stroke="#2a2a2a"></path><path d="M523 174L363 168L383 264Z" fill="#282828" stroke="#282828"></path><path d="M383 264L271 195L293 285Z" fill="#282828" stroke="#282828"></path><path d="M595 289L523 174L493 284Z" fill="#303030" stroke="#303030"></path><path d="M493 284L523 174L383 264Z" fill="#232323" stroke="#232323"></path><path d="M560 377L595 289L493 284Z" fill="#2e2e2e" stroke="#2e2e2e"></path><path d="M331 388L421 467L427 361Z" fill="#2e2e2e" stroke="#2e2e2e"></path><path d="M421 467L463 465L475 437Z" fill="#2a2a2a" stroke="#2a2a2a"></path><path d="M475 437L596 518L560 377Z" fill="#2a2a2a" stroke="#2a2a2a"></path><path d="M523 174L392 124L363 168Z" fill="#222222" stroke="#222222"></path><path d="M321 87L271 195L363 168Z" fill="#303030" stroke="#303030"></path><path d="M363 168L271 195L383 264Z" fill="#303030" stroke="#303030"></path><path d="M595 289L616 175L523 174Z" fill="#2b2b2b" stroke="#2b2b2b"></path><path d="M523 174L532 87L392 124Z" fill="#262626" stroke="#262626"></path><path d="M177 335L222 401L293 285Z" fill="#2d2d2d" stroke="#2d2d2d"></path><path d="M293 285L222 401L331 388Z" fill="#232323" stroke="#232323"></path><path d="M331 388L298 530L421 467Z" fill="#262626" stroke="#262626"></path><path d="M616 175L532 87L523 174Z" fill="#202020" stroke="#202020"></path><path d="M373 0L321 87L392 124Z" fill="#282828" stroke="#282828"></path><path d="M392 124L321 87L363 168Z" fill="#2d2d2d" stroke="#2d2d2d"></path><path d="M200 130L187 234L271 195Z" fill="#303030" stroke="#303030"></path><path d="M271 195L187 234L293 285Z" fill="#303030" stroke="#303030"></path><path d="M187 234L177 335L293 285Z" fill="#2a2a2a" stroke="#2a2a2a"></path><path d="M199 538L298 530L222 401Z" fill="#303030" stroke="#303030"></path><path d="M222 401L298 530L331 388Z" fill="#232323" stroke="#232323"></path><path d="M421 467L492 600L463 465Z" fill="#262626" stroke="#262626"></path><path d="M463 465L596 518L475 437Z" fill="#2d2d2d" stroke="#2d2d2d"></path><path d="M736 427L726 272L595 289Z" fill="#262626" stroke="#262626"></path><path d="M595 289L726 272L616 175Z" fill="#303030" stroke="#303030"></path><path d="M492 600L596 518L463 465Z" fill="#262626" stroke="#262626"></path><path d="M321 87L200 130L271 195Z" fill="#282828" stroke="#282828"></path><path d="M736 427L595 289L560 377Z" fill="#232323" stroke="#232323"></path><path d="M616 175L630 78L532 87Z" fill="#262626" stroke="#262626"></path><path d="M670 90L630 78L616 175Z" fill="#2a2a2a" stroke="#2a2a2a"></path><path d="M532 87L460 0L392 124Z" fill="#202020" stroke="#202020"></path><path d="M583 0L460 0L532 87Z" fill="#2e2e2e" stroke="#2e2e2e"></path><path d="M321 87L293 0L200 130Z" fill="#222222" stroke="#222222"></path><path d="M460 0L373 0L392 124Z" fill="#262626" stroke="#262626"></path><path d="M369 600L492 600L421 467Z" fill="#2d2d2d" stroke="#2d2d2d"></path><path d="M298 530L369 600L421 467Z" fill="#252525" stroke="#252525"></path><path d="M726 272L736 223L616 175Z" fill="#303030" stroke="#303030"></path><path d="M736 223L670 90L616 175Z" fill="#2a2a2a" stroke="#2a2a2a"></path><path d="M630 78L583 0L532 87Z" fill="#262626" stroke="#262626"></path><path d="M89 318L132 397L177 335Z" fill="#2b2b2b" stroke="#2b2b2b"></path><path d="M177 335L132 397L222 401Z" fill="#303030" stroke="#303030"></path><path d="M298 530L312 600L369 600Z" fill="#202020" stroke="#202020"></path><path d="M89 318L177 335L187 234Z" fill="#2e2e2e" stroke="#2e2e2e"></path><path d="M211 600L312 600L298 530Z" fill="#2b2b2b" stroke="#2b2b2b"></path><path d="M705 534L736 427L596 518Z" fill="#2e2e2e" stroke="#2e2e2e"></path><path d="M596 518L736 427L560 377Z" fill="#252525" stroke="#252525"></path><path d="M726 272L780 334L736 223Z" fill="#2e2e2e" stroke="#2e2e2e"></path><path d="M492 600L571 600L596 518Z" fill="#2d2d2d" stroke="#2d2d2d"></path><path d="M373 0L293 0L321 87Z" fill="#2a2a2a" stroke="#2a2a2a"></path><path d="M61 115L125 174L200 130Z" fill="#2a2a2a" stroke="#2a2a2a"></path><path d="M200 130L125 174L187 234Z" fill="#202020" stroke="#202020"></path><path d="M123 523L199 538L222 401Z" fill="#2d2d2d" stroke="#2d2d2d"></path><path d="M734 0L583 0L630 78Z" fill="#222222" stroke="#222222"></path><path d="M125 174L89 318L187 234Z" fill="#252525" stroke="#252525"></path><path d="M123 523L211 600L199 538Z" fill="#222222" stroke="#222222"></path><path d="M736 427L780 334L726 272Z" fill="#2b2b2b" stroke="#2b2b2b"></path><path d="M571 600L705 534L596 518Z" fill="#2b2b2b" stroke="#2b2b2b"></path><path d="M736 427L805 408L780 334Z" fill="#232323" stroke="#232323"></path><path d="M736 223L774 180L670 90Z" fill="#2d2d2d" stroke="#2d2d2d"></path><path d="M670 90L734 0L630 78Z" fill="#282828" stroke="#282828"></path><path d="M780 334L774 180L736 223Z" fill="#2b2b2b" stroke="#2b2b2b"></path><path d="M123 523L222 401L132 397Z" fill="#282828" stroke="#282828"></path><path d="M199 538L211 600L298 530Z" fill="#282828" stroke="#282828"></path><path d="M0 396L123 523L132 397Z" fill="#2d2d2d" stroke="#2d2d2d"></path><path d="M293 0L194 0L200 130Z" fill="#202020" stroke="#202020"></path><path d="M771 515L805 408L736 427Z" fill="#252525" stroke="#252525"></path><path d="M900 129L807 86L774 180Z" fill="#282828" stroke="#282828"></path><path d="M764 600L771 515L705 534Z" fill="#232323" stroke="#232323"></path><path d="M705 534L771 515L736 427Z" fill="#232323" stroke="#232323"></path><path d="M194 0L61 115L200 130Z" fill="#282828" stroke="#282828"></path><path d="M0 171L0 330L89 318Z" fill="#202020" stroke="#202020"></path><path d="M571 600L728 600L705 534Z" fill="#252525" stroke="#252525"></path><path d="M807 86L734 0L670 90Z" fill="#222222" stroke="#222222"></path><path d="M900 213L774 180L780 334Z" fill="#2b2b2b" stroke="#2b2b2b"></path><path d="M774 180L807 86L670 90Z" fill="#222222" stroke="#222222"></path><path d="M0 171L89 318L125 174Z" fill="#252525" stroke="#252525"></path><path d="M89 318L0 396L132 397Z" fill="#2e2e2e" stroke="#2e2e2e"></path><path d="M0 330L0 396L89 318Z" fill="#282828" stroke="#282828"></path><path d="M900 406L900 311L805 408Z" fill="#303030" stroke="#303030"></path><path d="M728 600L764 600L705 534Z" fill="#2a2a2a" stroke="#2a2a2a"></path><path d="M61 115L0 171L125 174Z" fill="#202020" stroke="#202020"></path><path d="M123 523L77 600L211 600Z" fill="#303030" stroke="#303030"></path><path d="M0 534L77 600L123 523Z" fill="#2e2e2e" stroke="#2e2e2e"></path><path d="M900 406L805 408L900 483Z" fill="#202020" stroke="#202020"></path><path d="M805 408L900 311L780 334Z" fill="#232323" stroke="#232323"></path><path d="M900 311L900 213L780 334Z" fill="#2b2b2b" stroke="#2b2b2b"></path><path d="M60 0L0 99L61 115Z" fill="#282828" stroke="#282828"></path><path d="M61 115L0 99L0 171Z" fill="#2e2e2e" stroke="#2e2e2e"></path><path d="M900 483L805 408L771 515Z" fill="#222222" stroke="#222222"></path><path d="M194 0L60 0L61 115Z" fill="#202020" stroke="#202020"></path><path d="M900 0L822 0L807 86Z" fill="#2e2e2e" stroke="#2e2e2e"></path><path d="M807 86L822 0L734 0Z" fill="#252525" stroke="#252525"></path><path d="M0 396L0 534L123 523Z" fill="#2b2b2b" stroke="#2b2b2b"></path><path d="M900 213L900 129L774 180Z" fill="#262626" stroke="#262626"></path><path d="M900 600L900 483L771 515Z" fill="#2e2e2e" stroke="#2e2e2e"></path><path d="M60 0L0 0L0 99Z" fill="#252525" stroke="#252525"></path><path d="M0 534L0 600L77 600Z" fill="#262626" stroke="#262626"></path><path d="M900 129L900 0L807 86Z" fill="#202020" stroke="#202020"></path><path d="M764 600L900 600L771 515Z" fill="#262626" stroke="#262626"></path></g></svg>