<svg id="visual" viewBox="0 0 900 600" width="900" height="600" xmlns="http://www.w3.org/2000/svg" xmlns:xlink="http://www.w3.org/1999/xlink" version="1.1"><g stroke-width="1" stroke-linejoin="bevel"><path d="M425.9 272L376.1 262L360.3 317Z" fill="#e5e5e5" stroke="#e5e5e5"></path><path d="M376.1 262L308.5 255L360.3 317Z" fill="#eff1f2" stroke="#eff1f2"></path><path d="M425.9 272L446.1 210L376.1 262Z" fill="#edeff1" stroke="#edeff1"></path><path d="M376.1 262L353.3 175L308.5 255Z" fill="#eceeef" stroke="#eceeef"></path><path d="M308.5 255L293.5 358L360.3 317Z" fill="#edeff1" stroke="#edeff1"></path><path d="M422.1 436L425.9 272L360.3 317Z" fill="#e6e6e7" stroke="#e6e6e7"></path><path d="M422.1 436L513.7 288L425.9 272Z" fill="#eceeef" stroke="#eceeef"></path><path d="M425.9 272L471.9 205L446.1 210Z" fill="#eceeef" stroke="#eceeef"></path><path d="M513.7 288L471.9 205L425.9 272Z" fill="#ebeced" stroke="#ebeced"></path><path d="M369.1 160L353.3 175L446.1 210Z" fill="#eff1f2" stroke="#eff1f2"></path><path d="M446.1 210L353.3 175L376.1 262Z" fill="#edeff1" stroke="#edeff1"></path><path d="M412.1 111L369.1 160L446.1 210Z" fill="#eff1f2" stroke="#eff1f2"></path><path d="M293.5 358L422.1 436L360.3 317Z" fill="#eceeef" stroke="#eceeef"></path><path d="M209.6 201L251.5 301L308.5 255Z" fill="#e7e8e8" stroke="#e7e8e8"></path><path d="M308.5 255L251.5 301L293.5 358Z" fill="#eceeef" stroke="#eceeef"></path><path d="M298.3 103L291.3 178L353.3 175Z" fill="#e6e6e7" stroke="#e6e6e7"></path><path d="M353.3 175L291.3 178L308.5 255Z" fill="#edeff1" stroke="#edeff1"></path><path d="M513.7 288L542.9 187L471.9 205Z" fill="#ebeced" stroke="#ebeced"></path><path d="M471.9 205L412.1 111L446.1 210Z" fill="#f1f4f6" stroke="#f1f4f6"></path><path d="M568.7 134L412.1 111L471.9 205Z" fill="#eceeef" stroke="#eceeef"></path><path d="M369.1 160L298.3 103L353.3 175Z" fill="#ebeced" stroke="#ebeced"></path><path d="M258.3 447L280.3 445L293.5 358Z" fill="#ebeced" stroke="#ebeced"></path><path d="M293.5 358L280.3 445L422.1 436Z" fill="#e9e9ea" stroke="#e9e9ea"></path><path d="M493.9 461L511.9 447L422.1 436Z" fill="#eaebeb" stroke="#eaebeb"></path><path d="M422.1 436L511.9 447L513.7 288Z" fill="#e9e9ea" stroke="#e9e9ea"></path><path d="M580.7 130L568.7 134L542.9 187Z" fill="#eaebeb" stroke="#eaebeb"></path><path d="M280.3 445L412.1 487L422.1 436Z" fill="#f1f4f6" stroke="#f1f4f6"></path><path d="M412.1 487L493.9 461L422.1 436Z" fill="#edeff1" stroke="#edeff1"></path><path d="M187.6 390L258.3 447L293.5 358Z" fill="#e7e8e8" stroke="#e7e8e8"></path><path d="M303.3 581L412.1 531L412.1 487Z" fill="#e5e5e5" stroke="#e5e5e5"></path><path d="M222.5 114L209.6 201L291.3 178Z" fill="#eaebeb" stroke="#eaebeb"></path><path d="M291.3 178L209.6 201L308.5 255Z" fill="#eff1f2" stroke="#eff1f2"></path><path d="M251.5 301L187.6 390L293.5 358Z" fill="#eceeef" stroke="#eceeef"></path><path d="M412.1 111L298.3 103L369.1 160Z" fill="#e5e5e5" stroke="#e5e5e5"></path><path d="M125.8 278L187.6 390L251.5 301Z" fill="#e6e6e7" stroke="#e6e6e7"></path><path d="M303.3 581L412.1 487L280.3 445Z" fill="#ebeced" stroke="#ebeced"></path><path d="M412.1 487L412.1 531L493.9 461Z" fill="#f0f2f4" stroke="#f0f2f4"></path><path d="M631.7 425L625.7 399L511.9 447Z" fill="#ebeced" stroke="#ebeced"></path><path d="M639.7 289L542.9 187L513.7 288Z" fill="#edeff1" stroke="#edeff1"></path><path d="M542.9 187L568.7 134L471.9 205Z" fill="#edeff1" stroke="#edeff1"></path><path d="M651.5 347L639.7 289L513.7 288Z" fill="#eff1f2" stroke="#eff1f2"></path><path d="M187.6 390L205.6 456L258.3 447Z" fill="#e6e6e7" stroke="#e6e6e7"></path><path d="M258.3 447L210.5 516L280.3 445Z" fill="#edeff1" stroke="#edeff1"></path><path d="M665.4 176L580.7 130L542.9 187Z" fill="#eff1f2" stroke="#eff1f2"></path><path d="M501.9 0L423.9 4L412.1 111Z" fill="#eaebeb" stroke="#eaebeb"></path><path d="M298.3 103L222.5 114L291.3 178Z" fill="#f1f4f6" stroke="#f1f4f6"></path><path d="M631.7 425L511.9 447L636.5 462Z" fill="#e9e9ea" stroke="#e9e9ea"></path><path d="M511.9 447L625.7 399L513.7 288Z" fill="#eaebeb" stroke="#eaebeb"></path><path d="M625.7 399L651.5 347L513.7 288Z" fill="#e9e9ea" stroke="#e9e9ea"></path><path d="M509.7 565L511.9 447L493.9 461Z" fill="#eceeef" stroke="#eceeef"></path><path d="M625.7 399L712.4 351L651.5 347Z" fill="#e9e9ea" stroke="#e9e9ea"></path><path d="M129.6 233L125.8 278L209.6 201Z" fill="#eff1f2" stroke="#eff1f2"></path><path d="M209.6 201L125.8 278L251.5 301Z" fill="#eceeef" stroke="#eceeef"></path><path d="M187.6 390L152.8 438L205.6 456Z" fill="#f0f2f4" stroke="#f0f2f4"></path><path d="M149.6 176L129.6 233L209.6 201Z" fill="#e9e9ea" stroke="#e9e9ea"></path><path d="M222.5 114L149.6 176L209.6 201Z" fill="#eceeef" stroke="#eceeef"></path><path d="M93.8 442L152.8 438L187.6 390Z" fill="#f0f2f4" stroke="#f0f2f4"></path><path d="M205.6 456L210.5 516L258.3 447Z" fill="#e7e8e8" stroke="#e7e8e8"></path><path d="M152.8 438L210.5 516L205.6 456Z" fill="#eaebeb" stroke="#eaebeb"></path><path d="M431.1 600L509.7 565L412.1 531Z" fill="#eaebeb" stroke="#eaebeb"></path><path d="M412.1 531L509.7 565L493.9 461Z" fill="#f1f4f6" stroke="#f1f4f6"></path><path d="M127.8 562L209.5 523L210.5 516Z" fill="#eceeef" stroke="#eceeef"></path><path d="M210.5 516L303.3 581L280.3 445Z" fill="#e5e5e5" stroke="#e5e5e5"></path><path d="M509.7 565L636.5 462L511.9 447Z" fill="#f0f2f4" stroke="#f0f2f4"></path><path d="M631.7 425L712.4 351L625.7 399Z" fill="#eaebeb" stroke="#eaebeb"></path><path d="M501.9 0L412.1 111L568.7 134Z" fill="#e9e9ea" stroke="#e9e9ea"></path><path d="M412.1 111L380.3 0L298.3 103Z" fill="#ebeced" stroke="#ebeced"></path><path d="M298.3 103L221.5 56L222.5 114Z" fill="#eff1f2" stroke="#eff1f2"></path><path d="M639.7 289L671.5 192L542.9 187Z" fill="#ebeced" stroke="#ebeced"></path><path d="M529.7 0L501.9 0L568.7 134Z" fill="#e5e5e5" stroke="#e5e5e5"></path><path d="M709.4 236L671.5 192L639.7 289Z" fill="#e9e9ea" stroke="#e9e9ea"></path><path d="M671.5 192L665.4 176L542.9 187Z" fill="#e9e9ea" stroke="#e9e9ea"></path><path d="M380.3 0L221.5 56L298.3 103Z" fill="#eff1f2" stroke="#eff1f2"></path><path d="M222.5 114L194.6 73L149.6 176Z" fill="#e7e8e8" stroke="#e7e8e8"></path><path d="M423.9 4L380.3 0L412.1 111Z" fill="#e6e6e7" stroke="#e6e6e7"></path><path d="M423.9 4L418.1 0L380.3 0Z" fill="#ebeced" stroke="#ebeced"></path><path d="M209.5 523L303.3 581L210.5 516Z" fill="#eceeef" stroke="#eceeef"></path><path d="M221.5 56L194.6 73L222.5 114Z" fill="#e9e9ea" stroke="#e9e9ea"></path><path d="M306.5 600L431.1 600L412.1 531Z" fill="#ebeced" stroke="#ebeced"></path><path d="M266.3 600L306.5 600L303.3 581Z" fill="#eceeef" stroke="#eceeef"></path><path d="M303.3 581L306.5 600L412.1 531Z" fill="#eceeef" stroke="#eceeef"></path><path d="M529.7 0L568.7 134L580.7 130Z" fill="#ebeced" stroke="#ebeced"></path><path d="M423.9 4L501.9 0L418.1 0Z" fill="#f1f4f6" stroke="#f1f4f6"></path><path d="M712.4 351L639.7 289L651.5 347Z" fill="#f1f4f6" stroke="#f1f4f6"></path><path d="M726.5 337L709.4 236L639.7 289Z" fill="#ebeced" stroke="#ebeced"></path><path d="M671.5 192L712.5 193L665.4 176Z" fill="#e6e6e7" stroke="#e6e6e7"></path><path d="M682.4 466L712.4 351L631.7 425Z" fill="#eaebeb" stroke="#eaebeb"></path><path d="M431.1 600L513.9 600L509.7 565Z" fill="#e7e8e8" stroke="#e7e8e8"></path><path d="M509.7 565L549.9 597L636.5 462Z" fill="#e6e6e7" stroke="#e6e6e7"></path><path d="M645.5 0L529.7 0L580.7 130Z" fill="#eceeef" stroke="#eceeef"></path><path d="M209.5 523L266.3 600L303.3 581Z" fill="#f1f4f6" stroke="#f1f4f6"></path><path d="M678.5 558L682.4 466L636.5 462Z" fill="#f0f2f4" stroke="#f0f2f4"></path><path d="M636.5 462L682.4 466L631.7 425Z" fill="#eff1f2" stroke="#eff1f2"></path><path d="M900 449L726.5 337L712.4 351Z" fill="#ebeced" stroke="#ebeced"></path><path d="M712.4 351L726.5 337L639.7 289Z" fill="#e9e9ea" stroke="#e9e9ea"></path><path d="M0 366L93.8 442L125.8 278Z" fill="#f0f2f4" stroke="#f0f2f4"></path><path d="M125.8 278L93.8 442L187.6 390Z" fill="#e6e6e7" stroke="#e6e6e7"></path><path d="M152.8 438L94.6 521L210.5 516Z" fill="#e5e5e5" stroke="#e5e5e5"></path><path d="M209.5 523L132.6 600L266.3 600Z" fill="#eceeef" stroke="#eceeef"></path><path d="M709.4 236L712.5 193L671.5 192Z" fill="#ebeced" stroke="#ebeced"></path><path d="M665.4 176L677.4 113L580.7 130Z" fill="#edeff1" stroke="#edeff1"></path><path d="M746.2 113L712.5 193L832.2 149Z" fill="#eaebeb" stroke="#eaebeb"></path><path d="M712.5 122L677.4 113L665.4 176Z" fill="#e7e8e8" stroke="#e7e8e8"></path><path d="M513.9 600L549.9 597L509.7 565Z" fill="#e9e9ea" stroke="#e9e9ea"></path><path d="M149.6 176L59.8 218L129.6 233Z" fill="#f1f4f6" stroke="#f1f4f6"></path><path d="M129.6 233L56.8 228L125.8 278Z" fill="#ebeced" stroke="#ebeced"></path><path d="M100.8 76L59.8 218L149.6 176Z" fill="#e9e9ea" stroke="#e9e9ea"></path><path d="M59.8 218L56.8 228L129.6 233Z" fill="#eaebeb" stroke="#eaebeb"></path><path d="M221.5 56L189.5 0L194.6 73Z" fill="#e6e6e7" stroke="#e6e6e7"></path><path d="M194.6 73L100.8 76L149.6 176Z" fill="#e6e6e7" stroke="#e6e6e7"></path><path d="M380.3 0L189.5 0L221.5 56Z" fill="#e7e8e8" stroke="#e7e8e8"></path><path d="M746.2 113L712.5 122L712.5 193Z" fill="#e6e6e7" stroke="#e6e6e7"></path><path d="M712.5 193L712.5 122L665.4 176Z" fill="#ebeced" stroke="#ebeced"></path><path d="M677.4 113L645.5 0L580.7 130Z" fill="#e9e9ea" stroke="#e9e9ea"></path><path d="M141.8 0L100.8 76L194.6 73Z" fill="#edeff1" stroke="#edeff1"></path><path d="M0 255L0 331L56.8 228Z" fill="#e6e6e7" stroke="#e6e6e7"></path><path d="M0 467L94.6 521L93.8 442Z" fill="#eff1f2" stroke="#eff1f2"></path><path d="M93.8 442L94.6 521L152.8 438Z" fill="#eaebeb" stroke="#eaebeb"></path><path d="M94.6 521L127.8 562L210.5 516Z" fill="#e9e9ea" stroke="#e9e9ea"></path><path d="M513.9 600L622.7 600L549.9 597Z" fill="#e5e5e5" stroke="#e5e5e5"></path><path d="M549.9 597L622.7 600L636.5 462Z" fill="#eaebeb" stroke="#eaebeb"></path><path d="M622.7 600L678.5 558L636.5 462Z" fill="#edeff1" stroke="#edeff1"></path><path d="M851.2 305L790.4 253L726.5 337Z" fill="#edeff1" stroke="#edeff1"></path><path d="M696.4 0L645.5 0L677.4 113Z" fill="#e7e8e8" stroke="#e7e8e8"></path><path d="M189.5 0L141.8 0L194.6 73Z" fill="#e9e9ea" stroke="#e9e9ea"></path><path d="M0 255L56.8 228L59.8 218Z" fill="#eaebeb" stroke="#eaebeb"></path><path d="M56.8 228L0 331L125.8 278Z" fill="#ebeced" stroke="#ebeced"></path><path d="M790.4 253L712.5 193L709.4 236Z" fill="#edeff1" stroke="#edeff1"></path><path d="M712.5 122L696.4 0L677.4 113Z" fill="#eaebeb" stroke="#eaebeb"></path><path d="M0 158L59.8 218L100.8 76Z" fill="#e9e9ea" stroke="#e9e9ea"></path><path d="M0 158L0 255L59.8 218Z" fill="#e5e5e5" stroke="#e5e5e5"></path><path d="M851.2 305L726.5 337L900 449Z" fill="#ebeced" stroke="#ebeced"></path><path d="M726.5 337L790.4 253L709.4 236Z" fill="#e7e8e8" stroke="#e7e8e8"></path><path d="M141.8 0L127.6 0L100.8 76Z" fill="#e6e6e7" stroke="#e6e6e7"></path><path d="M63.8 600L127.8 562L94.6 521Z" fill="#e7e8e8" stroke="#e7e8e8"></path><path d="M63.8 600L132.6 600L127.8 562Z" fill="#ebeced" stroke="#ebeced"></path><path d="M127.8 562L132.6 600L209.5 523Z" fill="#edeff1" stroke="#edeff1"></path><path d="M0 331L0 366L125.8 278Z" fill="#e7e8e8" stroke="#e7e8e8"></path><path d="M703.5 600L711.4 558L678.5 558Z" fill="#e9e9ea" stroke="#e9e9ea"></path><path d="M678.5 558L711.4 558L682.4 466Z" fill="#e5e5e5" stroke="#e5e5e5"></path><path d="M0 366L0 420L93.8 442Z" fill="#e5e5e5" stroke="#e5e5e5"></path><path d="M0 35L0 158L100.8 76Z" fill="#eaebeb" stroke="#eaebeb"></path><path d="M746.2 113L696.4 0L712.5 122Z" fill="#edeff1" stroke="#edeff1"></path><path d="M0 420L0 467L93.8 442Z" fill="#e5e5e5" stroke="#e5e5e5"></path><path d="M622.7 600L703.5 600L678.5 558Z" fill="#e7e8e8" stroke="#e7e8e8"></path><path d="M882.2 493L712.4 351L682.4 466Z" fill="#ebeced" stroke="#ebeced"></path><path d="M0 600L63.8 600L94.6 521Z" fill="#eaebeb" stroke="#eaebeb"></path><path d="M882.2 493L682.4 466L711.4 558Z" fill="#f1f4f6" stroke="#f1f4f6"></path><path d="M790.4 253L832.2 149L712.5 193Z" fill="#e7e8e8" stroke="#e7e8e8"></path><path d="M746.2 113L766.2 0L696.4 0Z" fill="#eaebeb" stroke="#eaebeb"></path><path d="M861.2 227L832.2 149L790.4 253Z" fill="#eff1f2" stroke="#eff1f2"></path><path d="M851.2 305L861.2 227L790.4 253Z" fill="#e7e8e8" stroke="#e7e8e8"></path><path d="M127.6 0L0 35L100.8 76Z" fill="#f0f2f4" stroke="#f0f2f4"></path><path d="M832.2 149L766.2 0L746.2 113Z" fill="#eff1f2" stroke="#eff1f2"></path><path d="M703.5 600L766.4 600L711.4 558Z" fill="#eff1f2" stroke="#eff1f2"></path><path d="M900 307L882.2 297L851.2 305Z" fill="#e5e5e5" stroke="#e5e5e5"></path><path d="M851.2 305L882.2 297L861.2 227Z" fill="#e6e6e7" stroke="#e6e6e7"></path><path d="M127.6 0L0 0L0 35Z" fill="#e9e9ea" stroke="#e9e9ea"></path><path d="M0 467L0 600L94.6 521Z" fill="#e7e8e8" stroke="#e7e8e8"></path><path d="M766.4 600L792.2 600L711.4 558Z" fill="#e9e9ea" stroke="#e9e9ea"></path><path d="M900 449L900 307L851.2 305Z" fill="#eff1f2" stroke="#eff1f2"></path><path d="M882.2 297L900 275L861.2 227Z" fill="#e5e5e5" stroke="#e5e5e5"></path><path d="M861.2 227L900 191L832.2 149Z" fill="#e6e6e7" stroke="#e6e6e7"></path><path d="M900 307L900 275L882.2 297Z" fill="#eaebeb" stroke="#eaebeb"></path><path d="M832.2 149L900 3L766.2 0Z" fill="#e5e5e5" stroke="#e5e5e5"></path><path d="M900 275L900 191L861.2 227Z" fill="#e5e5e5" stroke="#e5e5e5"></path><path d="M900 191L900 158L832.2 149Z" fill="#edeff1" stroke="#edeff1"></path><path d="M792.2 600L882.2 493L711.4 558Z" fill="#e9e9ea" stroke="#e9e9ea"></path><path d="M882.2 493L900 449L712.4 351Z" fill="#e6e6e7" stroke="#e6e6e7"></path><path d="M792.2 600L888.2 516L882.2 493Z" fill="#f1f4f6" stroke="#f1f4f6"></path><path d="M882.2 493L888.2 516L900 449Z" fill="#e9e9ea" stroke="#e9e9ea"></path><path d="M792.2 600L900 534L888.2 516Z" fill="#e6e6e7" stroke="#e6e6e7"></path><path d="M888.2 516L900 534L900 449Z" fill="#e9e9ea" stroke="#e9e9ea"></path><path d="M900 158L900 3L832.2 149Z" fill="#e5e5e5" stroke="#e5e5e5"></path><path d="M900 3L900 0L766.2 0Z" fill="#e7e8e8" stroke="#e7e8e8"></path><path d="M792.2 600L900 600L900 534Z" fill="#eff1f2" stroke="#eff1f2"></path></g></svg>